<svg width="0" height="0" class="hidden">
  <symbol xmlns="http://www.w3.org/2000/svg" xmlns:xlink="http://www.w3.org/1999/xlink" zoomAndPan="magnify" preserveAspectRatio="xMidYMid meet" version="1.0" viewBox="0 0 810 809.999993" id="growth">
    <defs>
      <clipPath id="db55582dd1">
        <path d="M 277 435 L 318 435 L 318 534.898438 L 277 534.898438 Z M 277 435 " clip-rule="nonzero"></path>
      </clipPath>
      <clipPath id="baaef99504">
        <path d="M 329 426 L 369 426 L 369 534.898438 L 329 534.898438 Z M 329 426 " clip-rule="nonzero"></path>
      </clipPath>
      <clipPath id="96491595ea">
        <path d="M 380 388 L 421 388 L 421 534.898438 L 380 534.898438 Z M 380 388 " clip-rule="nonzero"></path>
      </clipPath>
      <clipPath id="9f230c6156">
        <path d="M 432 377 L 472 377 L 472 534.898438 L 432 534.898438 Z M 432 377 " clip-rule="nonzero"></path>
      </clipPath>
      <clipPath id="e4e6d31364">
        <path d="M 483 332 L 524 332 L 524 534.898438 L 483 534.898438 Z M 483 332 " clip-rule="nonzero"></path>
      </clipPath>
      <clipPath id="a5f8dcafdc">
        <path d="M 243 275.398438 L 566 275.398438 L 566 476 L 243 476 Z M 243 275.398438 " clip-rule="nonzero"></path>
      </clipPath>
    </defs>
    <g clip-path="url(#db55582dd1)">
      <path fill="#100f0d" d="M 306.46875 435.476562 C 306.191406 435.476562 305.804688 435.554688 305.453125 435.875 L 277.492188 461.769531 L 277.492188 530.75 C 277.492188 533.058594 279.355469 534.925781 281.664062 534.925781 L 312.898438 534.925781 C 315.191406 534.925781 317.066406 533.058594 317.066406 530.75 L 317.066406 444.035156 L 307.425781 435.84375 C 307.085938 435.542969 306.710938 435.476562 306.46875 435.476562 " fill-opacity="1" fill-rule="nonzero"></path>
    </g>
    <g clip-path="url(#baaef99504)">
      <path fill="#100f0d" d="M 333.652344 453.941406 C 332.054688 453.941406 330.488281 453.652344 329.011719 453.113281 L 329.011719 530.75 C 329.011719 533.058594 330.875 534.925781 333.179688 534.925781 L 364.414062 534.925781 C 366.707031 534.925781 368.582031 533.058594 368.582031 530.75 L 368.582031 426.113281 L 342.851562 450.296875 C 340.359375 452.648438 337.085938 453.941406 333.652344 453.941406 " fill-opacity="1" fill-rule="nonzero"></path>
    </g>
    <g clip-path="url(#96491595ea)">
      <path fill="#100f0d" d="M 408.972656 388.691406 C 408.695312 388.691406 408.300781 388.769531 407.945312 389.101562 L 380.527344 414.886719 L 380.527344 530.75 C 380.527344 533.058594 382.390625 534.925781 384.699219 534.925781 L 415.933594 534.925781 C 418.226562 534.925781 420.101562 533.058594 420.101562 530.75 L 420.101562 398.488281 L 409.988281 389.089844 C 409.625 388.769531 409.238281 388.691406 408.972656 388.691406 " fill-opacity="1" fill-rule="nonzero"></path>
    </g>
    <g clip-path="url(#9f230c6156)">
      <path fill="#100f0d" d="M 433.753906 406.273438 C 433.183594 406.273438 432.609375 406.226562 432.046875 406.152344 L 432.046875 530.75 C 432.046875 533.058594 433.910156 534.925781 436.214844 534.925781 L 467.449219 534.925781 C 469.742188 534.925781 471.617188 533.058594 471.617188 530.75 L 471.617188 377.683594 L 442.578125 402.96875 C 440.128906 405.101562 436.996094 406.273438 433.753906 406.273438 " fill-opacity="1" fill-rule="nonzero"></path>
    </g>
    <g clip-path="url(#e4e6d31364)">
      <path fill="#100f0d" d="M 483.5625 530.75 C 483.5625 533.058594 485.425781 534.925781 487.730469 534.925781 L 518.96875 534.925781 C 521.261719 534.925781 523.136719 533.058594 523.136719 530.75 L 523.136719 332.808594 L 483.5625 367.28125 L 483.5625 530.75 " fill-opacity="1" fill-rule="nonzero"></path>
    </g>
    <g clip-path="url(#a5f8dcafdc)">
      <path fill="#100f0d" d="M 557.4375 275.996094 L 521.183594 280.148438 C 515.226562 280.832031 512.460938 287.898438 516.363281 292.449219 L 520.621094 297.417969 C 523.289062 300.53125 522.949219 305.226562 519.847656 307.917969 L 438.972656 378.367188 C 436.09375 380.875 431.792969 380.808594 429 378.203125 L 413.980469 364.257812 C 411.101562 361.585938 406.65625 361.605469 403.789062 364.289062 L 338.277344 425.894531 C 335.496094 428.5 331.214844 428.609375 328.328125 426.148438 L 310.878906 411.308594 C 308 408.855469 303.742188 408.945312 300.976562 411.515625 L 246.359375 462.101562 C 243.324219 464.90625 243.136719 469.632812 245.9375 472.65625 C 248.742188 475.695312 253.472656 475.871094 256.492188 473.078125 L 301.394531 431.492188 C 304.164062 428.917969 308.417969 428.832031 311.296875 431.28125 L 328.824219 446.1875 C 331.714844 448.652344 336.003906 448.542969 338.773438 445.933594 L 403.855469 384.738281 C 406.710938 382.054688 411.167969 382.035156 414.046875 384.707031 L 428.671875 398.300781 C 431.472656 400.90625 435.773438 400.972656 438.652344 398.464844 L 529.5 319.335938 C 532.621094 316.621094 537.363281 316.960938 540.066406 320.121094 L 542.988281 323.53125 C 546.882812 328.082031 554.273438 326.414062 555.859375 320.640625 L 565.488281 285.394531 C 566.890625 280.292969 562.6875 275.390625 557.4375 275.996094 " fill-opacity="1" fill-rule="nonzero"></path>
    </g>
  </symbol>
  <symbol xmlns="http://www.w3.org/2000/svg" xmlns:xlink="http://www.w3.org/1999/xlink" zoomAndPan="magnify" preserveAspectRatio="xMidYMid meet" version="1.0" viewBox="0 0 810 809.999993" id="line">
    <defs>
      <clipPath id="6901f523ef">
        <path d="M 243 404.191406 L 567 404.191406 L 567 405.691406 L 243 405.691406 Z M 243 404.191406 " clip-rule="nonzero"></path>
      </clipPath>
    </defs>
    <g clip-path="url(#6901f523ef)">
      <path fill="#231f20" d="M 243 404.25 L 567 404.25 L 567 405.628906 L 243 405.628906 Z M 243 404.25 " fill-opacity="1" fill-rule="nonzero"></path>
    </g>
  </symbol>
  <symbol xmlns="http://www.w3.org/2000/svg" xmlns:xlink="http://www.w3.org/1999/xlink" zoomAndPan="magnify" preserveAspectRatio="xMidYMid meet" version="1.0" viewBox="0 0 810 809.999993" id="menu">
    <defs>
      <clipPath id="7f01b2fe08">
        <path d="M 354 258.179688 L 566.820312 258.179688 L 566.820312 324.699219 L 354 324.699219 Z M 354 258.179688 " clip-rule="nonzero"></path>
      </clipPath>
      <clipPath id="1041658e48">
        <path d="M 243 252.132812 L 316 252.132812 L 316 325 L 243 325 Z M 243 252.132812 " clip-rule="nonzero"></path>
      </clipPath>
      <clipPath id="a6251d9c38">
        <path d="M 354 373.078125 L 566.820312 373.078125 L 566.820312 439 L 354 439 Z M 354 373.078125 " clip-rule="nonzero"></path>
      </clipPath>
      <clipPath id="34bf255119">
        <path d="M 354 487 L 566.820312 487 L 566.820312 553.292969 L 354 553.292969 Z M 354 487 " clip-rule="nonzero"></path>
      </clipPath>
      <clipPath id="f29377017d">
        <path d="M 243.132812 486 L 315.636719 486 L 315.636719 558.105469 L 243.132812 558.105469 Z M 243.132812 486 " clip-rule="nonzero"></path>
      </clipPath>
    </defs>
    <g clip-path="url(#7f01b2fe08)">
      <path fill="#545454" d="M 545.566406 324.125 L 375.546875 324.125 C 363.859375 324.125 354.296875 314.550781 354.296875 302.855469 L 354.296875 279.945312 C 354.296875 268.246094 363.859375 258.675781 375.546875 258.675781 L 545.566406 258.675781 C 557.261719 258.675781 566.824219 268.246094 566.824219 279.945312 L 566.824219 302.855469 C 566.824219 314.550781 557.261719 324.125 545.566406 324.125 " fill-opacity="1" fill-rule="nonzero"></path>
    </g>
    <g clip-path="url(#1041658e48)">
      <path fill="#545454" d="M 279.097656 252.132812 C 298.960938 252.132812 315.0625 268.246094 315.0625 288.128906 C 315.0625 308.007812 298.960938 324.125 279.097656 324.125 C 259.234375 324.125 243.132812 308.007812 243.132812 288.128906 C 243.132812 268.246094 259.234375 252.132812 279.097656 252.132812 " fill-opacity="1" fill-rule="nonzero"></path>
    </g>
    <g clip-path="url(#a6251d9c38)">
      <path fill="#545454" d="M 545.566406 438.660156 L 375.546875 438.660156 C 363.859375 438.660156 354.296875 429.089844 354.296875 417.390625 L 354.296875 394.480469 C 354.296875 382.785156 363.859375 373.210938 375.546875 373.210938 L 545.566406 373.210938 C 557.261719 373.210938 566.824219 382.785156 566.824219 394.480469 L 566.824219 417.390625 C 566.824219 429.089844 557.261719 438.660156 545.566406 438.660156 " fill-opacity="1" fill-rule="nonzero"></path>
    </g>
    <path fill="#545454" d="M 279.097656 368.304688 C 298.960938 368.304688 315.0625 384.417969 315.0625 404.300781 C 315.0625 424.179688 298.960938 440.296875 279.097656 440.296875 C 259.234375 440.296875 243.132812 424.179688 243.132812 404.300781 C 243.132812 384.417969 259.234375 368.304688 279.097656 368.304688 " fill-opacity="1" fill-rule="nonzero"></path>
    <g clip-path="url(#34bf255119)">
      <path fill="#545454" d="M 545.566406 553.199219 L 375.546875 553.199219 C 363.859375 553.199219 354.296875 543.625 354.296875 531.921875 L 354.296875 509.019531 C 354.296875 497.320312 363.859375 487.75 375.546875 487.75 L 545.566406 487.75 C 557.261719 487.75 566.824219 497.320312 566.824219 509.019531 L 566.824219 531.921875 C 566.824219 543.625 557.261719 553.199219 545.566406 553.199219 " fill-opacity="1" fill-rule="nonzero"></path>
    </g>
    <g clip-path="url(#f29377017d)">
      <path fill="#545454" d="M 279.097656 486.109375 C 298.960938 486.109375 315.0625 502.230469 315.0625 522.109375 C 315.0625 541.988281 298.960938 558.105469 279.097656 558.105469 C 259.234375 558.105469 243.132812 541.988281 243.132812 522.109375 C 243.132812 502.230469 259.234375 486.109375 279.097656 486.109375 " fill-opacity="1" fill-rule="nonzero"></path>
    </g>
  </symbol>
  <symbol version="1.0" xmlns="http://www.w3.org/2000/svg" preserveAspectRatio="xMidYMid meet" viewBox="0 0 1080.000000 1080.000000" id="quotes">
    <g transform="translate(0.000000,1080.000000) scale(0.100000,-0.100000)" fill="#000000" stroke="none">
      <path d="M4551 6884 c-328 -111 -605 -300 -836 -569 -301 -352 -475 -838 -475
-1329 0 -142 25 -360 51 -454 88 -313 333 -554 653 -642 112 -31 315 -32 439
-2 342 84 612 362 684 707 18 90 18 270 -1 360 -75 350 -315 607 -662 707
-112 32 -341 33 -459 1 -43 -12 -81 -21 -82 -19 -2 2 6 55 17 119 75 442 339
839 730 1098 57 38 98 69 90 69 -8 0 -75 -21 -149 -46z"></path>
      <path d="M7035 6889 c-147 -50 -235 -90 -357 -162 -698 -412 -1063 -1219 -939
-2072 54 -369 305 -656 666 -760 78 -23 109 -26 235 -27 170 0 253 17 389 82
115 55 193 113 287 213 178 188 265 447 236 700 -43 393 -309 703 -689 804
-102 27 -341 25 -445 -4 l-78 -21 0 30 c0 52 40 229 75 335 110 331 349 639
655 845 58 38 107 72 109 74 13 12 -38 -1 -144 -37z"></path>
    </g>
  </symbol>
  <symbol xmlns="http://www.w3.org/2000/svg" xmlns:xlink="http://www.w3.org/1999/xlink" zoomAndPan="magnify" preserveAspectRatio="xMidYMid meet" version="1.0" viewBox="0 0 810 809.999993" id="search">
    <defs>
      <clipPath id="320b281334">
        <path d="M 243 404.191406 L 567 404.191406 L 567 405.691406 L 243 405.691406 Z M 243 404.191406 " clip-rule="nonzero"></path>
      </clipPath>
      <clipPath id="6963e63f17">
        <path d="M 243 243 L 489 243 L 489 489 L 243 489 Z M 243 243 " clip-rule="nonzero"></path>
      </clipPath>
    </defs>
    <g clip-path="url(#320b281334)">
      <path fill="#231f20" d="M 243 404.25 L 567 404.25 L 567 405.628906 L 243 405.628906 Z M 243 404.25 " fill-opacity="1" fill-rule="nonzero"></path>
    </g>
    <path fill="#000000" d="M 431.464844 451.660156 L 451.648438 431.472656 L 492.632812 472.453125 L 472.445312 492.640625 Z M 431.464844 451.660156 " fill-opacity="1" fill-rule="nonzero"></path>
    <path fill="#000000" d="M 557.355469 514.273438 C 566.273438 523.191406 566.273438 537.664062 557.355469 546.597656 L 546.585938 557.355469 C 537.652344 566.285156 523.191406 566.285156 514.273438 557.355469 L 456.550781 499.621094 C 447.621094 490.691406 447.621094 476.230469 456.539062 467.3125 L 467.3125 456.539062 C 476.230469 447.621094 490.714844 447.621094 499.636719 456.539062 Z M 557.355469 514.273438 " fill-opacity="1" fill-rule="nonzero"></path>
    <g clip-path="url(#6963e63f17)">
      <path fill="#000000" d="M 365.59375 242.851562 C 297.792969 242.851562 242.851562 297.792969 242.851562 365.59375 C 242.851562 433.398438 297.792969 488.351562 365.59375 488.351562 C 433.398438 488.351562 488.351562 433.398438 488.351562 365.59375 C 488.351562 297.792969 433.398438 242.851562 365.59375 242.851562 Z M 365.59375 465.632812 C 310.328125 465.632812 265.542969 420.863281 265.542969 365.59375 C 265.542969 310.328125 310.328125 265.554688 365.59375 265.554688 C 420.863281 265.554688 465.648438 310.328125 465.648438 365.59375 C 465.648438 420.863281 420.863281 465.632812 365.59375 465.632812 Z M 365.59375 465.632812 " fill-opacity="1" fill-rule="nonzero"></path>
    </g>
    <path fill="#000000" d="M 390.765625 426.355469 C 341.800781 426.355469 302.082031 386.648438 302.082031 337.671875 C 302.082031 336.371094 302.21875 335.097656 302.285156 333.796875 C 295.816406 344.253906 292.023438 356.550781 292.023438 369.734375 C 292.023438 407.601562 322.722656 438.289062 360.578125 438.289062 C 375.203125 438.289062 388.710938 433.683594 399.859375 425.890625 C 396.867188 426.214844 393.828125 426.355469 390.765625 426.355469 Z M 390.765625 426.355469 " fill-opacity="1" fill-rule="nonzero"></path>
  </symbol>
  <symbol xmlns="http://www.w3.org/2000/svg" xmlns:xlink="http://www.w3.org/1999/xlink" zoomAndPan="magnify" preserveAspectRatio="xMidYMid meet" version="1.0" viewBox="0 0 810 809.999993" id="settings">
    <defs>
      <clipPath id="0d35234f68">
        <path d="M 243 404.191406 L 567 404.191406 L 567 405.691406 L 243 405.691406 Z M 243 404.191406 " clip-rule="nonzero"></path>
      </clipPath>
      <clipPath id="b7435234a9">
        <path d="M 258.996094 362 L 462 362 L 462 566 L 258.996094 566 Z M 258.996094 362 " clip-rule="nonzero"></path>
      </clipPath>
      <clipPath id="875f54a08c">
        <path d="M 440 337 L 550.746094 337 L 550.746094 449 L 440 449 Z M 440 337 " clip-rule="nonzero"></path>
      </clipPath>
    </defs>
    <g clip-path="url(#0d35234f68)">
      <path fill="#231f20" d="M 243 404.25 L 567 404.25 L 567 405.628906 L 243 405.628906 Z M 243 404.25 " fill-opacity="1" fill-rule="nonzero"></path>
    </g>
    <g clip-path="url(#b7435234a9)">
      <path fill="#000000" d="M 459.070312 448.71875 L 439.117188 442.242188 C 437.5 435.765625 434.800781 429.828125 431.566406 423.890625 L 441.273438 405 C 442.351562 403.378906 441.8125 401.761719 440.734375 400.140625 L 424.015625 383.949219 C 422.9375 382.871094 420.78125 382.332031 419.164062 383.410156 L 400.289062 393.125 C 394.355469 389.886719 388.425781 387.1875 382.492188 385.570312 L 376.019531 365.058594 C 375.480469 363.441406 373.863281 362.359375 372.246094 362.359375 L 348.519531 362.359375 C 346.898438 362.359375 345.28125 363.441406 344.742188 365.058594 L 338.269531 385.570312 C 331.800781 387.1875 325.867188 389.886719 320.476562 393.125 L 301.601562 383.410156 C 299.984375 382.332031 298.363281 382.871094 296.746094 383.949219 L 280.03125 400.683594 C 278.949219 401.761719 278.410156 403.921875 279.488281 405.539062 L 289.195312 424.429688 C 285.960938 430.367188 283.265625 436.304688 281.648438 442.78125 L 261.695312 448.71875 C 260.074219 449.257812 258.996094 450.878906 258.996094 452.496094 L 258.996094 476.246094 C 258.996094 477.863281 260.074219 479.484375 261.695312 480.023438 L 281.648438 486.5 C 283.265625 492.976562 285.960938 498.914062 289.195312 504.851562 L 279.488281 523.203125 C 278.410156 524.820312 278.949219 526.441406 280.03125 528.058594 L 296.746094 544.792969 C 297.824219 545.871094 299.984375 546.410156 301.601562 545.332031 L 319.9375 535.617188 C 325.867188 538.855469 331.800781 541.554688 338.269531 543.171875 L 344.742188 563.140625 C 345.28125 564.761719 346.898438 565.839844 348.519531 565.839844 L 372.246094 565.839844 C 373.863281 565.839844 375.480469 564.761719 376.019531 563.140625 L 382.492188 543.171875 C 388.964844 541.554688 394.894531 538.855469 400.828125 535.617188 L 419.164062 545.332031 C 420.78125 546.410156 422.398438 545.871094 424.015625 544.792969 L 440.734375 528.058594 C 441.8125 526.980469 442.351562 524.820312 441.273438 523.203125 L 431.566406 504.851562 C 434.800781 498.914062 437.5 492.976562 439.117188 486.5 L 459.070312 480.023438 C 460.6875 479.484375 461.765625 477.863281 461.765625 476.246094 L 461.765625 452.496094 C 461.765625 450.878906 460.6875 449.257812 459.070312 448.71875 Z M 453.675781 473.007812 L 434.261719 478.945312 C 433.183594 479.484375 432.105469 480.5625 431.566406 481.640625 C 429.949219 488.660156 426.714844 495.675781 423.476562 502.152344 C 422.9375 503.230469 422.9375 504.851562 423.476562 505.929688 L 432.644531 523.742188 L 420.242188 536.15625 L 402.445312 526.980469 C 401.367188 526.441406 399.75 526.441406 398.671875 526.980469 C 392.199219 530.757812 385.726562 533.457031 378.179688 535.617188 C 376.558594 536.15625 375.480469 537.234375 375.480469 538.3125 L 369.550781 557.746094 L 351.753906 557.746094 L 345.28125 538.855469 C 344.742188 537.773438 343.664062 536.695312 342.585938 536.15625 C 335.574219 534.535156 328.566406 531.296875 322.09375 527.519531 C 321.015625 526.980469 319.398438 526.980469 318.316406 527.519531 L 300.523438 536.695312 L 288.117188 524.28125 L 297.285156 506.46875 C 297.824219 505.390625 297.824219 503.769531 297.285156 502.691406 C 293.511719 496.214844 290.816406 489.738281 289.195312 482.183594 C 288.65625 480.5625 287.578125 479.484375 286.5 479.484375 L 267.085938 473.546875 L 267.085938 455.734375 L 286.5 449.796875 C 287.578125 449.257812 288.65625 448.179688 289.195312 447.097656 C 290.816406 440.082031 294.050781 433.066406 297.285156 427.128906 C 297.824219 426.050781 297.824219 424.429688 297.285156 423.351562 L 287.578125 405 L 299.984375 392.585938 L 318.316406 402.300781 C 319.398438 402.839844 321.015625 402.839844 322.09375 402.300781 C 328.023438 398.523438 335.035156 395.824219 342.046875 394.207031 C 343.664062 393.664062 344.742188 392.585938 344.742188 391.507812 L 350.675781 372.078125 L 368.472656 372.078125 L 374.402344 391.507812 C 374.941406 392.585938 376.019531 393.664062 377.101562 394.207031 C 384.109375 395.824219 391.121094 398.523438 397.054688 402.300781 C 398.132812 402.839844 399.75 402.839844 400.828125 402.300781 L 419.164062 392.585938 L 431.566406 405 L 421.859375 423.351562 C 421.320312 424.429688 421.320312 426.050781 421.859375 427.128906 C 425.632812 433.605469 428.332031 440.082031 429.949219 447.097656 C 430.488281 448.71875 431.566406 449.796875 432.644531 449.796875 L 452.058594 455.734375 L 452.058594 473.007812 Z M 453.675781 473.007812 " fill-opacity="1" fill-rule="nonzero"></path>
    </g>
    <path fill="#000000" d="M 360.382812 408.777344 C 329.644531 408.777344 304.835938 433.605469 304.835938 464.371094 C 304.835938 495.136719 329.644531 519.964844 360.382812 519.964844 C 391.121094 519.964844 415.925781 495.136719 415.925781 464.371094 C 415.925781 434.144531 391.121094 408.777344 360.382812 408.777344 Z M 360.382812 511.867188 C 333.957031 511.867188 312.925781 490.816406 312.925781 464.371094 C 312.925781 437.921875 333.957031 416.875 360.382812 416.875 C 386.804688 416.875 407.839844 437.921875 407.839844 464.371094 C 407.839844 490.816406 386.265625 511.867188 360.382812 511.867188 Z M 360.382812 511.867188 " fill-opacity="1" fill-rule="nonzero"></path>
    <path fill="#000000" d="M 342.585938 308.925781 L 353.910156 315.402344 C 353.910156 319.183594 354.449219 323.5 355.527344 327.277344 L 346.898438 336.992188 C 345.820312 338.074219 345.820312 340.230469 346.359375 341.851562 L 354.449219 354.804688 C 355.527344 356.425781 357.144531 356.964844 358.765625 356.425781 L 371.167969 353.183594 C 373.863281 355.882812 377.097656 358.042969 380.875 360.203125 L 381.953125 373.15625 C 381.953125 374.773438 383.570312 376.394531 385.1875 376.933594 L 400.289062 380.710938 L 401.367188 380.710938 C 402.984375 380.710938 404.0625 380.171875 404.601562 378.554688 L 411.074219 367.21875 C 414.847656 367.21875 419.164062 366.679688 422.9375 365.597656 L 432.644531 374.234375 C 433.722656 375.316406 435.882812 375.316406 437.5 374.773438 L 450.441406 366.679688 C 452.058594 365.597656 452.597656 363.980469 452.058594 362.359375 L 448.824219 349.945312 C 451.519531 347.25 453.675781 344.011719 455.835938 340.230469 L 468.777344 339.152344 C 470.394531 339.152344 472.011719 337.535156 472.550781 335.914062 L 476.328125 320.800781 C 476.867188 319.183594 475.789062 317.023438 474.710938 316.484375 L 463.382812 309.46875 C 463.382812 305.6875 462.84375 301.910156 461.765625 298.132812 L 470.394531 288.417969 C 471.472656 287.339844 471.472656 285.179688 470.933594 283.558594 L 462.84375 270.605469 C 461.765625 268.988281 460.148438 268.449219 458.53125 268.988281 L 445.589844 272.226562 C 442.890625 269.527344 439.65625 267.367188 436.421875 265.207031 L 435.339844 252.253906 C 435.339844 250.636719 433.722656 249.015625 432.105469 248.476562 L 417.007812 244.699219 C 415.386719 244.160156 413.230469 245.238281 412.691406 246.316406 L 405.679688 257.652344 C 401.90625 257.652344 398.132812 258.191406 394.355469 259.273438 L 384.648438 250.636719 C 383.570312 249.554688 381.414062 249.554688 379.796875 250.097656 L 366.851562 258.730469 C 365.234375 259.8125 364.695312 261.429688 365.234375 263.050781 L 367.933594 276.003906 C 365.234375 278.703125 363.078125 281.941406 360.921875 285.179688 L 347.980469 286.257812 C 346.359375 286.257812 344.742188 287.878906 344.203125 289.496094 L 340.429688 304.609375 C 340.429688 306.230469 340.96875 307.847656 342.585938 308.925781 Z M 351.753906 294.355469 L 364.15625 293.816406 C 365.773438 293.816406 366.851562 292.734375 367.394531 291.65625 C 369.550781 287.339844 372.246094 283.558594 375.480469 280.320312 C 376.558594 279.242188 377.097656 277.621094 376.558594 276.542969 L 373.863281 264.667969 L 381.953125 259.8125 L 391.121094 267.90625 C 392.199219 268.988281 393.816406 268.988281 394.894531 268.988281 C 399.210938 267.367188 404.0625 266.828125 408.378906 266.828125 C 409.996094 266.828125 411.074219 266.289062 411.613281 264.667969 L 418.085938 253.875 L 427.253906 256.035156 L 428.332031 268.449219 C 428.332031 270.066406 429.410156 271.144531 430.488281 271.6875 C 434.800781 273.84375 438.039062 276.542969 441.8125 279.78125 C 442.351562 280.859375 443.96875 281.402344 445.589844 280.859375 L 457.453125 277.621094 L 462.304688 285.71875 L 454.214844 294.894531 C 453.136719 296.511719 453.136719 297.59375 453.136719 299.210938 C 454.753906 303.53125 455.296875 308.386719 455.296875 312.707031 C 455.296875 314.324219 455.835938 315.402344 457.453125 315.945312 L 468.238281 322.421875 L 466.082031 331.597656 L 453.675781 332.136719 C 452.058594 332.136719 450.980469 333.214844 450.441406 334.292969 C 448.285156 338.613281 445.589844 342.390625 442.351562 345.628906 C 441.273438 346.707031 440.734375 348.328125 441.273438 349.40625 L 443.96875 361.28125 L 435.882812 366.140625 L 426.714844 358.042969 C 425.636719 356.964844 424.015625 356.964844 422.9375 356.964844 C 418.625 358.582031 413.769531 359.121094 408.917969 359.121094 C 407.300781 359.121094 406.222656 359.664062 405.679688 361.28125 L 399.210938 372.617188 L 390.042969 370.457031 L 389.503906 358.042969 C 389.503906 356.425781 388.425781 355.34375 387.347656 354.804688 C 383.03125 352.644531 379.257812 349.945312 376.019531 346.707031 C 374.941406 345.628906 373.324219 345.089844 372.246094 345.628906 L 360.382812 348.328125 L 355.527344 340.230469 L 363.617188 331.054688 C 364.695312 329.976562 364.695312 328.359375 364.695312 327.277344 C 363.078125 322.960938 362.539062 318.101562 362.539062 313.246094 C 362.539062 311.625 362 310.546875 360.382812 310.007812 L 350.136719 303.53125 Z M 351.753906 294.355469 " fill-opacity="1" fill-rule="nonzero"></path>
    <path fill="#000000" d="M 399.75 349.945312 C 402.445312 350.488281 405.679688 351.027344 408.917969 351.027344 C 426.175781 351.027344 441.273438 339.152344 445.589844 322.421875 C 447.746094 312.707031 446.667969 302.449219 441.273438 293.816406 C 435.882812 285.179688 427.792969 279.242188 418.085938 276.542969 C 415.386719 276.003906 412.152344 275.464844 408.917969 275.464844 C 391.660156 275.464844 376.558594 287.339844 372.246094 304.070312 C 370.089844 313.785156 371.167969 324.039062 376.558594 332.675781 C 381.953125 341.3125 390.042969 347.25 399.75 349.945312 Z M 379.796875 306.230469 C 383.03125 292.734375 394.894531 283.558594 408.378906 283.558594 C 410.535156 283.558594 413.230469 284.097656 415.386719 284.640625 C 422.9375 286.257812 429.410156 291.117188 433.722656 298.132812 C 438.039062 305.148438 439.117188 312.707031 436.960938 320.800781 C 433.722656 334.292969 421.859375 343.46875 408.378906 343.46875 C 406.21875 343.46875 403.523438 342.929688 401.367188 342.390625 C 393.816406 340.230469 387.347656 335.375 383.03125 328.359375 C 379.257812 321.882812 377.640625 313.785156 379.796875 306.230469 Z M 379.796875 306.230469 " fill-opacity="1" fill-rule="nonzero"></path>
    <g clip-path="url(#875f54a08c)">
      <path fill="#000000" d="M 548.050781 390.425781 L 538.882812 386.109375 C 538.34375 383.410156 537.804688 380.710938 536.726562 378.011719 L 542.660156 369.917969 C 543.738281 368.296875 543.738281 366.679688 542.660156 365.058594 L 535.109375 355.34375 C 534.03125 353.726562 532.410156 353.1875 530.253906 353.726562 L 521.085938 356.964844 C 518.929688 355.34375 516.234375 353.726562 513.539062 352.644531 L 512.457031 342.390625 C 511.917969 340.773438 510.839844 339.152344 509.222656 339.152344 L 496.820312 337.535156 C 495.203125 337.535156 493.582031 338.074219 492.503906 339.691406 L 488.191406 348.867188 C 485.496094 349.40625 482.796875 349.945312 480.101562 351.027344 L 472.011719 345.089844 C 470.394531 344.011719 468.777344 344.011719 467.160156 345.089844 L 457.453125 352.644531 C 455.835938 353.726562 455.296875 355.34375 455.835938 357.503906 L 459.070312 366.679688 C 457.453125 368.835938 455.835938 371.535156 454.753906 374.234375 L 445.046875 375.855469 C 443.429688 376.394531 441.8125 377.472656 441.8125 379.09375 L 440.195312 391.507812 C 440.195312 393.125 440.734375 394.746094 442.351562 395.824219 L 451.519531 400.140625 C 452.058594 402.839844 452.597656 406.078125 453.675781 408.777344 L 447.746094 416.335938 C 446.667969 417.953125 446.667969 419.574219 447.746094 421.191406 L 455.296875 430.90625 C 456.375 432.527344 457.992188 433.066406 459.609375 432.527344 L 468.777344 429.289062 C 470.933594 430.90625 473.628906 432.527344 476.328125 433.605469 L 477.945312 443.320312 C 478.484375 444.941406 479.5625 446.558594 481.179688 446.558594 L 493.582031 448.179688 L 494.125 448.179688 C 495.742188 448.179688 497.359375 447.097656 497.898438 446.019531 L 502.210938 436.84375 C 504.910156 436.304688 508.144531 435.765625 510.839844 434.683594 L 518.929688 440.621094 C 520.546875 441.703125 522.164062 441.703125 523.785156 440.621094 L 533.492188 433.066406 C 535.109375 431.988281 535.648438 430.367188 535.109375 428.207031 L 531.871094 419.03125 C 533.492188 416.875 535.109375 414.175781 536.1875 411.476562 L 545.894531 409.859375 C 547.511719 409.316406 549.128906 408.238281 549.128906 406.621094 L 550.746094 394.207031 C 550.746094 392.585938 549.667969 390.96875 548.050781 390.425781 Z M 541.039062 402.300781 L 531.871094 403.921875 C 530.253906 403.921875 529.175781 405 528.636719 406.621094 C 527.558594 409.859375 525.402344 413.097656 523.246094 415.792969 C 522.164062 416.875 522.164062 418.492188 522.703125 419.574219 L 525.941406 428.207031 L 521.085938 431.988281 L 513.539062 426.589844 C 512.457031 425.511719 510.839844 425.511719 509.761719 426.050781 C 506.527344 427.667969 502.75 428.207031 498.976562 428.75 C 497.359375 428.75 496.28125 429.828125 495.742188 430.90625 L 491.964844 439.003906 L 485.496094 439.003906 L 483.875 429.828125 C 483.875 428.207031 482.796875 427.128906 481.179688 426.589844 C 477.945312 424.96875 474.710938 423.351562 472.011719 421.191406 C 470.933594 420.113281 469.316406 420.113281 468.238281 420.652344 L 459.609375 423.890625 L 455.835938 419.03125 L 461.226562 411.476562 C 462.304688 410.398438 462.304688 408.777344 461.765625 407.699219 C 460.148438 404.460938 459.609375 400.683594 459.070312 396.902344 C 459.070312 395.285156 457.992188 394.207031 456.914062 393.664062 L 448.285156 389.347656 L 449.363281 382.871094 L 458.53125 381.25 C 460.148438 381.25 461.226562 380.171875 461.765625 378.554688 C 463.382812 375.316406 465.003906 372.078125 467.160156 369.378906 C 468.238281 368.296875 468.238281 366.679688 467.699219 365.597656 L 464.460938 356.964844 L 469.316406 353.1875 L 476.867188 358.582031 C 477.945312 359.664062 479.5625 359.664062 480.640625 359.121094 C 483.875 357.503906 487.652344 356.964844 490.886719 356.425781 C 492.503906 356.425781 493.582031 355.34375 494.125 354.265625 L 497.898438 346.167969 L 504.371094 347.25 L 505.988281 356.425781 C 505.988281 358.042969 507.066406 359.121094 508.683594 359.664062 C 511.917969 360.742188 515.15625 362.902344 517.851562 365.058594 C 518.929688 366.140625 520.546875 366.140625 521.625 365.597656 L 530.253906 362.359375 L 534.03125 367.21875 L 528.636719 374.773438 C 527.558594 375.855469 527.558594 377.472656 528.097656 378.554688 C 529.714844 381.792969 530.253906 385.570312 530.792969 388.808594 C 530.792969 390.425781 531.871094 391.507812 532.953125 392.046875 L 541.578125 395.824219 Z M 541.039062 402.300781 " fill-opacity="1" fill-rule="nonzero"></path>
    </g>
    <path fill="#000000" d="M 495.203125 361.820312 C 488.191406 361.820312 482.257812 363.980469 476.867188 368.296875 C 470.394531 373.15625 466.082031 380.710938 465.003906 388.808594 C 463.921875 396.902344 466.082031 405 470.933594 411.476562 C 476.867188 419.574219 486.035156 423.890625 495.742188 423.890625 C 502.75 423.890625 508.683594 421.730469 514.078125 417.414062 C 527.558594 407.160156 530.253906 387.726562 520.007812 374.234375 C 514.078125 366.679688 504.910156 361.820312 495.203125 361.820312 Z M 508.683594 410.9375 C 504.910156 414.175781 500.054688 415.792969 495.203125 415.792969 C 488.191406 415.792969 481.179688 412.554688 476.867188 406.621094 C 473.089844 401.761719 471.472656 395.824219 472.550781 389.886719 C 473.628906 383.949219 476.328125 378.554688 481.179688 374.773438 C 484.957031 371.535156 489.808594 369.917969 494.664062 369.917969 C 501.671875 369.917969 508.683594 373.15625 512.996094 379.09375 C 521.085938 389.347656 518.929688 403.378906 508.683594 410.9375 Z M 508.683594 410.9375 " fill-opacity="1" fill-rule="nonzero"></path>
  </symbol>
  <symbol xmlns="http://www.w3.org/2000/svg" xmlns:xlink="http://www.w3.org/1999/xlink" zoomAndPan="magnify" preserveAspectRatio="xMidYMid meet" version="1.0" viewBox="0 0 810 809.999993" id="snap">
    <defs>
      <clipPath id="99b674c9d9">
        <path d="M 243 276.636719 L 566 276.636719 L 566 578.886719 L 243 578.886719 Z M 243 276.636719 " clip-rule="nonzero"></path>
      </clipPath>
    </defs>
    <g clip-path="url(#99b674c9d9)">
      <path fill="#000000" d="M 556.777344 497.761719 C 516.222656 491.078125 497.691406 449.117188 497.089844 447.753906 C 497.007812 447.507812 496.816406 447.070312 496.707031 446.824219 C 495.480469 444.371094 494.25 440.910156 495.289062 438.453125 C 497.0625 434.253906 505.496094 431.582031 510.546875 429.972656 C 512.320312 429.402344 514.011719 428.882812 515.320312 428.367188 C 527.574219 423.511719 533.6875 417.1875 533.554688 409.496094 C 533.445312 403.308594 528.695312 397.636719 521.707031 395.179688 C 519.277344 394.144531 516.496094 393.628906 513.683594 393.628906 C 511.773438 393.628906 508.878906 393.898438 506.097656 395.179688 C 501.429688 397.363281 497.335938 398.535156 494.414062 398.671875 C 493.789062 398.644531 493.242188 398.589844 492.777344 398.507812 L 493.078125 393.710938 C 494.441406 372.003906 496.164062 344.957031 488.820312 328.511719 C 467.148438 280.058594 421.246094 276.296875 407.679688 276.296875 L 401.511719 276.351562 C 387.976562 276.351562 342.152344 280.113281 320.535156 328.539062 C 313.195312 344.984375 314.886719 372.003906 316.277344 393.738281 L 316.332031 394.554688 C 316.414062 395.890625 316.496094 397.226562 316.578125 398.507812 C 313.546875 399.054688 307.625 398.042969 301.484375 395.179688 C 293.132812 391.28125 278.09375 396.4375 276.019531 407.34375 C 275.09375 412.167969 276.210938 421.332031 294.007812 428.339844 C 295.34375 428.882812 297.007812 429.402344 298.8125 429.972656 C 303.832031 431.582031 312.265625 434.226562 314.039062 438.453125 C 315.078125 440.910156 313.847656 444.371094 312.402344 447.34375 C 311.636719 449.117188 293.214844 491.078125 252.578125 497.761719 C 247.390625 498.605469 243.707031 503.1875 243.980469 508.476562 C 244.0625 509.867188 244.417969 511.257812 244.988281 512.621094 C 248.675781 521.265625 262.074219 527.207031 287.074219 531.269531 C 287.511719 532.742188 288.003906 534.925781 288.277344 536.125 C 288.792969 538.605469 289.367188 541.113281 290.132812 543.734375 C 290.867188 546.214844 293.40625 551.96875 301.320312 551.96875 C 303.722656 551.96875 306.34375 551.449219 309.15625 550.902344 C 313.304688 550.085938 318.488281 549.078125 325.148438 549.078125 C 328.859375 549.078125 332.679688 549.402344 336.527344 550.03125 C 343.625 551.203125 350.039062 555.757812 357.488281 560.992188 C 369.117188 569.226562 382.296875 578.523438 402.738281 578.523438 C 403.285156 578.523438 403.832031 578.496094 404.351562 578.472656 C 405.085938 578.496094 405.851562 578.523438 406.617188 578.523438 C 427.058594 578.523438 440.238281 569.199219 451.894531 560.992188 C 458.988281 555.949219 465.703125 551.230469 472.828125 550.03125 C 476.675781 549.402344 480.496094 549.078125 484.207031 549.078125 C 490.621094 549.078125 495.699219 549.894531 500.230469 550.792969 C 503.449219 551.421875 506.015625 551.722656 508.390625 551.722656 C 513.683594 551.722656 517.75 548.695312 519.222656 543.625 C 519.988281 541.058594 520.535156 538.578125 521.082031 536.070312 C 521.296875 535.144531 521.816406 532.796875 522.28125 531.246094 C 547.28125 527.179688 560.679688 521.238281 564.339844 512.675781 C 564.9375 511.3125 565.265625 509.894531 565.375 508.421875 C 565.648438 503.214844 561.964844 498.632812 556.777344 497.761719 Z M 556.777344 497.761719 " fill-opacity="1" fill-rule="nonzero"></path>
    </g>
  </symbol>
  <symbol xmlns="http://www.w3.org/2000/svg" viewBox="0 0 16 11" id="tick">
    <defs></defs>
    <path id="Shape_10_copy_5" d="M2,4L6,8l8-8"></path>
  </symbol>
  <symbol xmlns="http://www.w3.org/2000/svg" xmlns:xlink="http://www.w3.org/1999/xlink" zoomAndPan="magnify" preserveAspectRatio="xMidYMid meet" version="1.0" viewBox="0 0 810 809.999993" id="wordpress">
    <path fill="#000000" d="M 298.933594 327.855469 C 322.78125 295.128906 361.40625 273.855469 405 273.855469 C 445.097656 273.855469 480.992188 291.851562 505.046875 320.207031 C 483.589844 312.914062 460.207031 333.214844 467.808594 357.171875 L 477.886719 388.9375 L 450.625 456.324219 L 421.46875 383.816406 L 411.375 358.714844 L 420.429688 358.714844 C 428.949219 358.714844 435.855469 351.808594 435.855469 343.285156 C 435.855469 334.765625 428.949219 327.855469 420.429688 327.855469 L 374.144531 327.855469 C 365.621094 327.855469 358.714844 334.765625 358.714844 343.285156 C 358.714844 351.808594 365.621094 358.714844 374.144531 358.714844 L 378.117188 358.714844 L 390.472656 389.445312 L 361.800781 457.726562 L 320.214844 358.714844 L 327.855469 358.714844 C 336.378906 358.714844 343.285156 351.808594 343.285156 343.285156 C 343.285156 334.765625 336.378906 327.855469 327.855469 327.855469 Z M 284.457031 353.265625 C 277.636719 369.136719 273.855469 386.628906 273.855469 405 C 273.855469 477.429688 332.570312 536.144531 405 536.144531 C 477.429688 536.144531 536.144531 477.429688 536.144531 405 C 536.144531 386.195312 532.183594 368.3125 525.054688 352.144531 C 524.734375 354.5625 524.109375 356.96875 523.160156 359.308594 L 508.578125 395.355469 L 464.882812 503.355469 C 462.523438 509.191406 456.855469 513.007812 450.5625 513 C 444.269531 512.992188 438.613281 509.164062 436.265625 503.328125 L 406.84375 430.15625 L 376.023438 503.546875 C 373.621094 509.273438 368.011719 513 361.800781 513 C 355.589844 513 349.980469 509.273438 347.574219 503.546875 Z M 405 243 C 315.53125 243 243 315.53125 243 405 C 243 494.46875 315.53125 567 405 567 C 494.46875 567 567 494.46875 567 405 C 567 315.53125 494.46875 243 405 243 Z M 405 243 " fill-opacity="1" fill-rule="evenodd"></path>
  </symbol>
  <symbol xmlns="http://www.w3.org/2000/svg" xmlns:xlink="http://www.w3.org/1999/xlink" zoomAndPan="magnify" preserveAspectRatio="xMidYMid meet" version="1.0" viewBox="0 0 810 809.999993" id="chevron">
    <defs>
      <clipPath id="0b04acb79a">
        <path d="M 243 404.191406 L 567 404.191406 L 567 405.691406 L 243 405.691406 Z M 243 404.191406 " clip-rule="nonzero"></path>
      </clipPath>
      <clipPath id="f83070cf45">
        <path d="M 298.078125 244 L 511 244 L 511 566 L 298.078125 566 Z M 298.078125 244 " clip-rule="nonzero"></path>
      </clipPath>
    </defs>
    <g clip-path="url(#0b04acb79a)">
      <path fill="#231f20" d="M 243 404.25 L 567 404.25 L 567 405.628906 L 243 405.628906 Z M 243 404.25 " fill-opacity="1" fill-rule="nonzero"></path>
    </g>
    <g clip-path="url(#f83070cf45)">
      <path fill="#000000" d="M 350.875 244.078125 C 348.964844 244.105469 347.167969 244.847656 345.800781 246.1875 L 301.859375 289.804688 C 299.007812 292.65625 298.980469 297.273438 301.800781 300.125 L 405.644531 404.863281 L 300.976562 508.746094 C 298.097656 511.597656 298.070312 516.214844 300.917969 519.066406 L 344.519531 563.023438 C 347.367188 565.902344 351.984375 565.933594 354.835938 563.082031 L 508.660156 410.449219 C 511.511719 407.601562 511.539062 402.980469 508.691406 400.101562 L 356.144531 246.246094 C 354.75 244.820312 352.839844 244.050781 350.875 244.078125 Z M 350.875 244.078125 " fill-opacity="1" fill-rule="nonzero"></path>
    </g>
  </symbol>
  <symbol xmlns="http://www.w3.org/2000/svg" xmlns:xlink="http://www.w3.org/1999/xlink" zoomAndPan="magnify" preserveAspectRatio="xMidYMid meet" version="1.0" viewBox="0 0 810 809.999993" id="clock">
    <path fill="#000000" d="M 404.917969 243 C 315.414062 243 243 315.496094 243 405 C 243 494.503906 315.414062 567 404.917969 567 C 494.425781 567 567 494.503906 567 405 C 567 315.496094 494.425781 243 404.917969 243 Z M 405 534.601562 C 333.394531 534.601562 275.398438 476.605469 275.398438 405 C 275.398438 333.394531 333.394531 275.398438 405 275.398438 C 476.605469 275.398438 534.601562 333.394531 534.601562 405 C 534.601562 476.605469 476.605469 534.601562 405 534.601562 Z M 405 534.601562 " fill-opacity="1" fill-rule="nonzero"></path>
    <path fill="#000000" d="M 413.101562 324 L 388.800781 324 L 388.800781 421.199219 L 473.769531 472.230469 L 486 452.304688 L 413.101562 409.050781 Z M 413.101562 324 " fill-opacity="1" fill-rule="nonzero"></path>
  </symbol>
  <symbol xmlns="http://www.w3.org/2000/svg" xmlns:xlink="http://www.w3.org/1999/xlink" zoomAndPan="magnify" preserveAspectRatio="xMidYMid meet" version="1.0" viewBox="0 0 810 809.999993" id="computer">
    <defs>
      <clipPath id="b5f777f6ec">
        <path d="M 243 272.566406 L 567 272.566406 L 567 537.316406 L 243 537.316406 Z M 243 272.566406 " clip-rule="nonzero"></path>
      </clipPath>
    </defs>
    <g clip-path="url(#b5f777f6ec)">
      <path fill="#100f0d" d="M 253.53125 279.699219 L 556.355469 279.699219 C 557.929688 279.667969 559.222656 280.929688 559.25 282.503906 C 559.25 282.503906 559.25 282.535156 559.25 282.5625 L 559.25 472.554688 C 559.25 474.128906 557.988281 475.417969 556.414062 475.417969 C 556.382812 475.417969 556.382812 475.417969 556.355469 475.417969 L 253.53125 475.417969 C 251.984375 475.449219 250.664062 474.1875 250.636719 472.613281 C 250.636719 472.613281 250.636719 472.582031 250.636719 472.554688 L 250.636719 282.5625 C 250.636719 280.988281 251.925781 279.699219 253.472656 279.699219 C 253.5 279.699219 253.53125 279.699219 253.53125 279.699219 Z M 250.578125 272.59375 C 246.679688 272.652344 243.585938 275.832031 243.585938 279.699219 L 243.585938 490.199219 C 243.585938 494.097656 246.679688 497.25 250.578125 497.335938 L 381.210938 497.335938 L 381.210938 519.824219 C 381.210938 521.398438 379.949219 522.6875 378.375 522.6875 C 378.347656 522.6875 378.316406 522.6875 378.289062 522.6875 L 362.582031 522.6875 C 355.734375 522.746094 349.828125 527.441406 348.195312 534.089844 C 347.824219 535.609375 348.769531 537.15625 350.289062 537.527344 C 350.515625 537.585938 350.746094 537.613281 350.976562 537.613281 L 459.109375 537.613281 C 460.6875 537.613281 461.949219 536.324219 461.949219 534.75 C 461.949219 534.519531 461.917969 534.289062 461.890625 534.089844 C 460.257812 527.386719 454.210938 522.660156 447.300781 522.6875 L 431.597656 522.6875 C 430.050781 522.628906 428.816406 521.371094 428.816406 519.824219 L 428.816406 497.335938 L 559.277344 497.335938 C 563.203125 497.363281 566.414062 494.183594 566.472656 490.257812 C 566.472656 490.257812 566.472656 490.230469 566.472656 490.199219 L 566.472656 279.699219 C 566.445312 275.773438 563.261719 272.59375 559.335938 272.59375 C 559.308594 272.59375 559.308594 272.59375 559.277344 272.59375 L 250.578125 272.59375 " fill-opacity="1" fill-rule="nonzero"></path>
    </g>
  </symbol>
  <symbol xmlns="http://www.w3.org/2000/svg" xmlns:xlink="http://www.w3.org/1999/xlink" zoomAndPan="magnify" preserveAspectRatio="xMidYMid meet" version="1.0" viewBox="0 0 810 809.999993" id="easy">
    <defs>
      <clipPath id="ac849c2da0">
        <path d="M 243 252.113281 L 529 252.113281 L 529 558.113281 L 243 558.113281 Z M 243 252.113281 " clip-rule="nonzero"></path>
      </clipPath>
    </defs>
    <path fill="#000000" d="M 385.539062 461.925781 C 381.003906 461.925781 376.515625 459.984375 373.402344 456.246094 L 319.945312 392.15625 C 314.355469 385.453125 315.246094 375.484375 321.957031 369.886719 C 328.652344 364.289062 338.617188 365.183594 344.207031 371.898438 L 388.066406 424.476562 L 539.621094 311.101562 C 546.609375 305.867188 556.515625 307.300781 561.742188 314.296875 C 566.96875 321.292969 565.535156 331.203125 558.546875 336.4375 L 394.996094 458.773438 C 392.164062 460.902344 388.839844 461.925781 385.539062 461.925781 Z M 385.539062 461.925781 " fill-opacity="1" fill-rule="nonzero"></path>
    <path fill="#000000" d="M 418.738281 292.898438 L 402.539062 305.867188 C 430.03125 310.054688 454.230469 324.421875 471.160156 344.984375 L 497.101562 325.574219 C 493.882812 321.574219 490.453125 317.753906 486.832031 314.121094 C 480.371094 307.65625 473.265625 301.789062 465.710938 296.671875 C 458.074219 291.511719 449.910156 287.078125 441.449219 283.492188 C 429.441406 278.414062 416.917969 275.039062 404.066406 273.40625 L 419 289.902344 C 419.773438 290.792969 419.65625 292.160156 418.738281 292.898438 Z M 418.738281 292.898438 " fill-opacity="1" fill-rule="nonzero"></path>
    <g clip-path="url(#ac849c2da0)">
      <path fill="#000000" d="M 495.433594 400.960938 C 496.03125 405.628906 496.351562 410.378906 496.351562 415.199219 C 496.351562 476.1875 446.773438 525.792969 385.84375 525.792969 C 324.917969 525.792969 275.339844 476.175781 275.339844 415.199219 C 275.339844 362.972656 311.699219 319.09375 360.410156 307.5625 L 360.410156 322.035156 C 360.410156 323.832031 362.558594 324.761719 363.875 323.527344 L 399.566406 289.9375 C 400.425781 289.125 400.425781 287.75 399.566406 286.9375 L 363.875 253.347656 C 362.558594 252.113281 360.410156 253.042969 360.410156 254.839844 L 360.410156 274.523438 C 350.082031 276.378906 340 279.378906 330.25 283.503906 C 321.78125 287.089844 313.613281 291.523438 305.988281 296.683594 C 298.433594 301.800781 291.328125 307.667969 284.867188 314.132812 C 278.40625 320.601562 272.542969 327.714844 267.429688 335.273438 C 262.273438 342.914062 257.84375 351.085938 254.261719 359.550781 C 246.8125 377.1875 243.03125 395.90625 243.03125 415.1875 C 243.03125 434.472656 246.8125 453.199219 254.261719 470.824219 C 257.84375 479.300781 262.273438 487.472656 267.429688 495.105469 C 272.542969 502.664062 278.40625 509.777344 284.867188 516.242188 C 291.328125 522.710938 298.433594 528.578125 305.988281 533.691406 C 313.625 538.855469 321.792969 543.285156 330.25 546.871094 C 347.875 554.328125 366.578125 558.113281 385.84375 558.113281 C 405.125 558.113281 423.828125 554.328125 441.4375 546.871094 C 449.910156 543.285156 458.074219 538.855469 465.699219 533.691406 C 473.253906 528.578125 480.359375 522.710938 486.820312 516.242188 C 493.285156 509.777344 499.144531 502.664062 504.257812 495.105469 C 509.414062 487.460938 513.84375 479.289062 517.425781 470.824219 C 524.875 453.1875 528.660156 434.472656 528.660156 415.1875 C 528.660156 403.007812 527.15625 391.050781 524.160156 379.457031 Z M 495.433594 400.960938 " fill-opacity="1" fill-rule="nonzero"></path>
    </g>
    <path fill="#000000" d="M 385.539062 461.925781 C 381.003906 461.925781 376.515625 459.984375 373.402344 456.246094 L 319.945312 392.15625 C 314.355469 385.453125 315.246094 375.484375 321.957031 369.886719 C 328.652344 364.289062 338.617188 365.183594 344.207031 371.898438 L 388.066406 424.476562 L 539.621094 311.101562 C 546.609375 305.867188 556.515625 307.300781 561.742188 314.296875 C 566.96875 321.292969 565.535156 331.203125 558.546875 336.4375 L 394.996094 458.773438 C 392.164062 460.902344 388.839844 461.925781 385.539062 461.925781 Z M 385.539062 461.925781 " fill-opacity="1" fill-rule="nonzero"></path>
  </symbol>
</svg>