<?xml version="1.0" standalone="no"?>
<!DOCTYPE svg PUBLIC "-//W3C//DTD SVG 20010904//EN"
 "http://www.w3.org/TR/2001/REC-SVG-20010904/DTD/svg10.dtd">
<svg version="1.0" xmlns="http://www.w3.org/2000/svg"
 width="540.000000pt" height="540.000000pt" viewBox="0 0 540.000000 540.000000"
 preserveAspectRatio="xMidYMid meet">

<g transform="translate(0.000000,540.000000) scale(0.100000,-0.100000)"
fill="#000000" stroke="none">
<path d="M1756 3485 c-78 -28 -129 -98 -129 -180 0 -137 131 -229 258 -181 70
27 125 105 125 180 0 77 -69 166 -144 185 -55 14 -62 13 -110 -4z"/>
<path d="M2295 3493 c-26 -7 -66 -33 -89 -58 -65 -70 -60 -215 10 -276 58 -50
36 -49 749 -49 634 0 668 1 703 19 133 68 141 264 15 343 l-38 23 -665 1
c-366 1 -674 0 -685 -3z"/>
<path d="M2296 2888 c-53 -14 -123 -85 -132 -133 -3 -20 -4 -59 -2 -86 6 -57
43 -111 99 -144 33 -19 55 -20 682 -23 447 -2 660 1 689 8 22 6 58 28 80 48
111 104 62 293 -86 331 -59 15 -1274 14 -1330 -1z"/>
<path d="M1734 2871 c-82 -37 -124 -130 -100 -222 48 -183 315 -183 366 -1 12
46 12 58 0 104 -31 110 -159 167 -266 119z"/>
<path d="M1755 2277 c-57 -23 -74 -38 -101 -83 -87 -149 44 -325 211 -283 93
23 156 122 140 218 -8 49 -54 115 -95 136 -42 21 -118 27 -155 12z"/>
<path d="M2281 2279 c-79 -32 -121 -96 -121 -187 0 -76 38 -139 102 -171 44
-21 50 -21 705 -21 l660 0 44 23 c92 49 129 169 81 262 -24 49 -46 69 -95 90
-31 13 -124 15 -694 14 -387 0 -668 -4 -682 -10z"/>
</g>
</svg>
